<svg width="92" height="67" viewBox="0 0 92 67" fill="none" xmlns="http://www.w3.org/2000/svg">
<path d="M90.0018 38.9159C89.6824 39.1555 89.3189 39.3298 88.9321 39.4289C88.5453 39.528 88.1427 39.5499 87.7475 39.4935C87.3522 39.437 86.9719 39.3032 86.6283 39.0998C86.2847 38.8964 85.9846 38.6272 85.745 38.3078C83.9124 35.8444 81.5269 33.8457 78.7808 32.4727C76.0346 31.0996 73.0044 30.3904 69.9341 30.4023C69.3362 30.4023 68.7516 30.226 68.2533 29.8954C67.7551 29.5648 67.3654 29.0947 67.133 28.5438C66.9751 28.1697 66.8938 27.7678 66.8938 27.3618C66.8938 26.9558 66.9751 26.5538 67.133 26.1798C67.3654 25.6289 67.7551 25.1588 68.2533 24.8282C68.7516 24.4976 69.3362 24.3213 69.9341 24.3212C71.6401 24.3211 73.3119 23.8425 74.7596 22.9398C76.2072 22.0372 77.3728 20.7466 78.1237 19.2148C78.8747 17.6829 79.181 15.9711 79.0079 14.2739C78.8348 12.5767 78.1892 10.962 77.1444 9.61335C76.0996 8.26466 74.6975 7.236 73.0974 6.64421C71.4973 6.05243 69.7633 5.92123 68.0924 6.26554C66.4215 6.60984 64.8806 7.41583 63.6448 8.59197C62.409 9.76811 61.5278 11.2673 61.1013 12.9191C61.0014 13.3059 60.8264 13.6693 60.5861 13.9885C60.3459 14.3076 60.0451 14.5764 59.701 14.7793C59.3569 14.9822 58.9762 15.1154 58.5806 15.1712C58.1851 15.227 57.7824 15.2043 57.3956 15.1045C57.0088 15.0047 56.6454 14.8297 56.3262 14.5894C56.007 14.3492 55.7383 14.0484 55.5354 13.7043C55.3325 13.3602 55.1993 12.9795 55.1435 12.5839C55.0877 12.1883 55.1103 11.7856 55.2102 11.3988C55.8021 9.1082 56.9206 6.98734 58.4765 5.20502C60.0323 3.42269 61.9827 2.02809 64.1724 1.13218C66.3621 0.23627 68.7307 -0.136222 71.0897 0.044344C73.4487 0.22491 75.7329 0.95355 77.7608 2.17229C79.7886 3.39102 81.504 5.06622 82.7705 7.06458C84.037 9.06294 84.8196 11.3293 85.0561 13.6833C85.2925 16.0374 84.9763 18.4141 84.1326 20.6245C83.2889 22.8348 81.9409 24.8177 80.196 26.4154C84.3304 28.2055 87.9246 31.0462 90.6213 34.6553C90.8609 34.9756 91.0349 35.3399 91.1334 35.7275C91.232 36.1152 91.2531 36.5184 91.1955 36.9142C91.138 37.3099 91.0029 37.6905 90.7981 38.034C90.5932 38.3774 90.3226 38.6772 90.0018 38.9159ZM69.5236 62.3282C69.7436 62.6743 69.8913 63.0613 69.9579 63.466C70.0244 63.8706 70.0085 64.2845 69.9109 64.6828C69.8133 65.0811 69.6362 65.4556 69.3902 65.7836C69.1441 66.1117 68.8343 66.3866 68.4793 66.5919C68.1242 66.7971 67.7314 66.9284 67.3243 66.9778C66.9172 67.0273 66.5043 66.9938 66.1105 66.8796C65.7166 66.7653 65.35 66.5726 65.0326 66.313C64.7151 66.0533 64.4535 65.7322 64.2634 65.3688C62.3481 62.1256 59.6202 59.4377 56.349 57.5705C53.0777 55.7033 49.3762 54.7213 45.6096 54.7213C41.843 54.7213 38.1415 55.7033 34.8702 57.5705C31.599 59.4377 28.8711 62.1256 26.9557 65.3688C26.7657 65.7322 26.504 66.0533 26.1866 66.313C25.8692 66.5726 25.5025 66.7653 25.1087 66.8796C24.7149 66.9938 24.302 67.0273 23.8949 66.9778C23.4878 66.9284 23.0949 66.7971 22.7399 66.5919C22.3849 66.3866 22.075 66.1117 21.829 65.7836C21.583 65.4556 21.4058 65.0811 21.3083 64.6828C21.2107 64.2845 21.1947 63.8706 21.2613 63.466C21.3279 63.0613 21.4756 62.6743 21.6956 62.3282C24.6434 57.2633 29.1381 53.2775 34.5191 50.9565C31.4912 48.6383 29.2659 45.4294 28.156 41.781C27.0461 38.1326 27.1074 34.2281 28.3313 30.6163C29.5552 27.0046 31.8801 23.8672 34.9793 21.6451C38.0785 19.423 41.7961 18.2279 45.6096 18.2279C49.4231 18.2279 53.1407 19.423 56.2399 21.6451C59.3391 23.8672 61.664 27.0046 62.8879 30.6163C64.1118 34.2281 64.1731 38.1326 63.0632 41.781C61.9533 45.4294 59.728 48.6383 56.7 50.9565C62.0811 53.2775 66.5758 57.2633 69.5236 62.3282ZM45.6096 48.6457C48.0151 48.6457 50.3665 47.9324 52.3666 46.596C54.3666 45.2596 55.9255 43.3601 56.846 41.1378C57.7666 38.9154 58.0074 36.47 57.5381 34.1107C57.0689 31.7515 55.9105 29.5844 54.2096 27.8835C52.5087 26.1825 50.3416 25.0242 47.9823 24.5549C45.6231 24.0856 43.1777 24.3265 40.9553 25.247C38.7329 26.1675 36.8335 27.7264 35.4971 29.7265C34.1606 31.7266 33.4473 34.078 33.4473 36.4835C33.4473 39.7091 34.7287 42.8026 37.0096 45.0835C39.2904 47.3643 42.384 48.6457 45.6096 48.6457ZM24.3257 27.3618C24.3257 26.5554 24.0053 25.782 23.4351 25.2118C22.8649 24.6416 22.0915 24.3212 21.2851 24.3212C19.5791 24.3211 17.9073 23.8425 16.4596 22.9398C15.0119 22.0372 13.8464 20.7466 13.0955 19.2148C12.3445 17.6829 12.0382 15.9711 12.2113 14.2739C12.3844 12.5767 13.03 10.962 14.0748 9.61335C15.1196 8.26466 16.5217 7.236 18.1218 6.64421C19.7219 6.05243 21.4559 5.92123 23.1268 6.26554C24.7977 6.60984 26.3386 7.41583 27.5744 8.59197C28.8102 9.76811 29.6914 11.2673 30.1179 12.9191C30.3195 13.7003 30.8232 14.3694 31.5182 14.7793C32.2131 15.1891 33.0424 15.3061 33.8236 15.1045C34.6048 14.9029 35.2739 14.3992 35.6838 13.7043C36.0936 13.0093 36.2106 12.18 36.009 11.3988C35.417 9.1082 34.2986 6.98734 32.7427 5.20502C31.1869 3.42269 29.2365 2.02809 27.0468 1.13218C24.8571 0.23627 22.4885 -0.136222 20.1295 0.044344C17.7705 0.22491 15.4862 0.95355 13.4584 2.17229C11.4306 3.39102 9.71516 5.06622 8.44867 7.06458C7.18219 9.06294 6.39958 11.3293 6.16311 13.6833C5.92665 16.0374 6.24286 18.4141 7.08659 20.6245C7.93032 22.8348 9.27827 24.8177 11.0232 26.4154C6.8929 28.2072 3.30288 31.0478 0.609266 34.6553C0.124917 35.3005 -0.0833184 36.1116 0.0303684 36.9102C0.144055 37.7089 0.570352 38.4297 1.21548 38.914C1.8606 39.3984 2.67171 39.6066 3.47037 39.4929C4.26903 39.3792 4.98982 38.9529 5.47416 38.3078C7.30681 35.8444 9.69224 33.8457 12.4384 32.4727C15.1846 31.0996 18.2148 30.3904 21.2851 30.4023C22.0915 30.4023 22.8649 30.082 23.4351 29.5118C24.0053 28.9416 24.3257 28.1682 24.3257 27.3618Z" fill="#EEEEEE"/>
</svg>
