<svg width="29" height="26" viewBox="0 0 29 26" xmlns="http://www.w3.org/2000/svg">
<path d="M23.9387 3.88589C21.3165 1.39313 17.7743 -0.00362466 14.084 7.06447e-06H13.9391C10.2289 0.0366537 6.68374 1.47731 4.07374 4.00895C1.46374 6.5406 -0.000196359 9.95871 1.97548e-08 13.5206C1.97548e-08 19.1109 3.59954 23.7989 9.39294 25.7633C10.0464 25.9845 10.7455 26.052 11.4317 25.9602C12.118 25.8684 12.7713 25.6201 13.3369 25.2359C13.9024 24.8517 14.3638 24.3429 14.6823 23.7522C15.0008 23.1615 15.1672 22.5062 15.1674 21.841C15.1674 21.2893 15.3957 20.7603 15.802 20.3702C16.2083 19.9801 16.7595 19.7609 17.3341 19.7609H23.592C24.575 19.7655 25.5301 19.4472 26.2987 18.8588C27.0672 18.2704 27.6031 17.4474 27.8172 16.5264C28.0594 15.5028 28.1771 14.4558 28.168 13.4062C28.1542 11.6296 27.7733 9.87336 27.0473 8.23913C26.3213 6.60491 25.2647 5.12525 23.9387 3.88589ZM25.6992 16.0688C25.5916 16.5276 25.3241 16.9375 24.941 17.2306C24.5578 17.5237 24.082 17.6825 23.592 17.6808H17.3341C16.1848 17.6808 15.0826 18.1191 14.2699 18.8993C13.4572 19.6795 13.0006 20.7377 13.0006 21.841C13.0001 22.1733 12.9167 22.5006 12.7574 22.7955C12.5981 23.0905 12.3675 23.3445 12.0849 23.5363C11.8023 23.7282 11.476 23.8522 11.1332 23.8981C10.7905 23.9441 10.4412 23.9105 10.1147 23.8002C5.21243 22.14 2.16677 18.2008 2.16677 13.5206C2.1666 10.5068 3.40523 7.61464 5.61356 5.4725C7.82189 3.33035 10.8215 2.11127 13.9608 2.0801H14.0826C17.222 2.09181 20.2308 3.28757 22.4601 5.40951C24.6895 7.53146 25.9608 10.4096 25.9999 13.4231C26.0079 14.313 25.9088 15.2007 25.7046 16.0688H25.6992ZM15.7091 6.76032C15.7091 7.06887 15.6138 7.3705 15.4352 7.62705C15.2566 7.8836 15.0028 8.08356 14.7059 8.20164C14.4089 8.31972 14.0822 8.35061 13.7669 8.29041C13.4517 8.23022 13.1622 8.08164 12.9349 7.86346C12.7076 7.64528 12.5528 7.3673 12.4901 7.06467C12.4274 6.76205 12.4596 6.44837 12.5826 6.16331C12.7056 5.87824 12.9139 5.63459 13.1811 5.46317C13.4484 5.29174 13.7626 5.20025 14.084 5.20025C14.515 5.20025 14.9283 5.36461 15.2331 5.65718C15.5378 5.94975 15.7091 6.34656 15.7091 6.76032ZM9.75045 9.88046C9.75045 10.189 9.65514 10.4906 9.47658 10.7472C9.29801 11.0037 9.04421 11.2037 8.74727 11.3218C8.45032 11.4399 8.12357 11.4708 7.80834 11.4106C7.49311 11.3504 7.20355 11.2018 6.97627 10.9836C6.749 10.7654 6.59423 10.4874 6.53153 10.1848C6.46882 9.88219 6.501 9.56852 6.624 9.28345C6.747 8.99838 6.95529 8.75473 7.22253 8.58331C7.48978 8.41189 7.80397 8.32039 8.12538 8.32039C8.55637 8.32039 8.96972 8.48476 9.27448 8.77733C9.57924 9.0699 9.75045 9.46671 9.75045 9.88046ZM9.75045 17.1608C9.75045 17.4694 9.65514 17.771 9.47658 18.0275C9.29801 18.2841 9.04421 18.484 8.74727 18.6021C8.45032 18.7202 8.12357 18.7511 7.80834 18.6909C7.49311 18.6307 7.20355 18.4821 6.97627 18.2639C6.749 18.0458 6.59423 17.7678 6.53153 17.4652C6.46882 17.1625 6.501 16.8489 6.624 16.5638C6.747 16.2787 6.95529 16.0351 7.22253 15.8636C7.48978 15.6922 7.80397 15.6007 8.12538 15.6007C8.55637 15.6007 8.96972 15.7651 9.27448 16.0577C9.57924 16.3502 9.75045 16.747 9.75045 17.1608ZM21.6677 9.88046C21.6677 10.189 21.5724 10.4906 21.3938 10.7472C21.2152 11.0037 20.9614 11.2037 20.6645 11.3218C20.3675 11.4399 20.0408 11.4708 19.7256 11.4106C19.4103 11.3504 19.1208 11.2018 18.8935 10.9836C18.6662 10.7654 18.5114 10.4874 18.4487 10.1848C18.386 9.88219 18.4182 9.56852 18.5412 9.28345C18.6642 8.99838 18.8725 8.75473 19.1398 8.58331C19.407 8.41189 19.7212 8.32039 20.0426 8.32039C20.4736 8.32039 20.8869 8.48476 21.1917 8.77733C21.4965 9.0699 21.6677 9.46671 21.6677 9.88046Z" fill="black"/>
</svg>
