<svg width="25" height="26" viewBox="0 0 25 26" fill="none" xmlns="http://www.w3.org/2000/svg">
<path d="M24.29 10.3688L13.8891 0.555536C13.884 0.5511 13.8792 0.546322 13.8748 0.541235C13.4918 0.192979 12.9928 0 12.4752 0C11.9576 0 11.4586 0.192979 11.0756 0.541235L11.0613 0.555536L0.672157 10.3688C0.460236 10.5636 0.291074 10.8004 0.175374 11.064C0.059674 11.3276 -4.37394e-05 11.6124 2.40362e-08 11.9003V23.9198C2.40362e-08 24.4715 0.219161 25.0006 0.60927 25.3907C0.999379 25.7808 1.52848 26 2.08018 26H22.8819C23.4336 26 23.9627 25.7808 24.3529 25.3907C24.743 25.0006 24.9621 24.4715 24.9621 23.9198V11.9003C24.9622 11.6124 24.9025 11.3276 24.7868 11.064C24.6711 10.8004 24.5019 10.5636 24.29 10.3688ZM22.8819 23.9198H2.08018V11.9003L2.09448 11.8873L12.4811 2.07797L22.8689 11.8847L22.8832 11.8977L22.8819 23.9198Z" fill="#393E46"/>
</svg>
