<svg width="36" height="26" viewBox="0 0 36 26" fill="none" xmlns="http://www.w3.org/2000/svg">
<path d="M34.9261 15.1017C34.8021 15.1947 34.6611 15.2623 34.511 15.3008C34.3609 15.3392 34.2046 15.3477 34.0513 15.3258C33.8979 15.3039 33.7503 15.252 33.617 15.1731C33.4836 15.0941 33.3672 14.9897 33.2742 14.8657C32.563 13.9098 31.6373 13.1342 30.5716 12.6013C29.506 12.0685 28.3301 11.7933 27.1386 11.7979C26.9066 11.7979 26.6797 11.7295 26.4864 11.6012C26.293 11.4729 26.1418 11.2905 26.0516 11.0767C25.9903 10.9315 25.9588 10.7756 25.9588 10.618C25.9588 10.4604 25.9903 10.3045 26.0516 10.1593C26.1418 9.94554 26.293 9.7631 26.4864 9.63482C26.6797 9.50654 26.9066 9.43811 27.1386 9.43808C27.8006 9.43803 28.4494 9.25231 29.0112 8.90202C29.573 8.55173 30.0252 8.05092 30.3167 7.45647C30.6081 6.86202 30.727 6.19775 30.6598 5.53913C30.5926 4.88051 30.3421 4.25392 29.9366 3.73055C29.5312 3.20718 28.9871 2.808 28.3662 2.57835C27.7452 2.3487 27.0723 2.29779 26.4239 2.4314C25.7755 2.56501 25.1775 2.87779 24.698 3.3342C24.2184 3.79061 23.8764 4.37237 23.7109 5.01339C23.6722 5.16349 23.6043 5.3045 23.511 5.42836C23.4178 5.55221 23.3011 5.65649 23.1676 5.73524C23.034 5.814 22.8863 5.86567 22.7328 5.88733C22.5793 5.90898 22.423 5.90019 22.2729 5.86145C22.1228 5.82272 21.9818 5.75479 21.8579 5.66156C21.7341 5.56833 21.6298 5.45161 21.551 5.31808C21.4723 5.18455 21.4206 5.03681 21.399 4.8833C21.3773 4.7298 21.3861 4.57353 21.4248 4.42343C21.6546 3.53452 22.0886 2.71151 22.6924 2.01986C23.2961 1.32821 24.053 0.787021 24.9027 0.439354C25.7525 0.0916867 26.6716 -0.0528622 27.587 0.0172081C28.5025 0.0872784 29.3889 0.370034 30.1758 0.842977C30.9627 1.31592 31.6284 1.96599 32.1199 2.74148C32.6114 3.51696 32.9151 4.39645 33.0068 5.30995C33.0986 6.22346 32.9759 7.14578 32.6485 8.00352C32.321 8.86126 31.798 9.63075 31.1208 10.2508C32.7252 10.9454 34.12 12.0478 35.1665 13.4483C35.2594 13.5726 35.327 13.714 35.3652 13.8644C35.4035 14.0148 35.4116 14.1713 35.3893 14.3249C35.367 14.4785 35.3146 14.6261 35.2351 14.7594C35.1556 14.8927 35.0506 15.009 34.9261 15.1017ZM26.9793 24.1871C27.0647 24.3214 27.122 24.4716 27.1478 24.6286C27.1737 24.7856 27.1675 24.9462 27.1296 25.1008C27.0917 25.2554 27.023 25.4007 26.9275 25.528C26.8321 25.6553 26.7118 25.762 26.574 25.8416C26.4363 25.9213 26.2838 25.9722 26.1258 25.9914C25.9679 26.0106 25.8076 25.9976 25.6548 25.9533C25.502 25.9089 25.3597 25.8341 25.2365 25.7334C25.1133 25.6326 25.0118 25.508 24.9381 25.367C24.1948 24.1084 23.1362 23.0654 21.8668 22.3408C20.5973 21.6162 19.1609 21.2351 17.6992 21.2351C16.2376 21.2351 14.8012 21.6162 13.5317 22.3408C12.2623 23.0654 11.2037 24.1084 10.4604 25.367C10.3867 25.508 10.2852 25.6326 10.162 25.7334C10.0388 25.8341 9.89651 25.9089 9.74368 25.9533C9.59085 25.9976 9.43062 26.0106 9.27265 25.9914C9.11468 25.9722 8.96222 25.9213 8.82444 25.8416C8.68667 25.762 8.56643 25.6553 8.47095 25.528C8.37548 25.4007 8.30675 25.2554 8.26889 25.1008C8.23103 24.9462 8.22482 24.7856 8.25065 24.6286C8.27648 24.4716 8.3338 24.3214 8.41918 24.1871C9.5631 22.2216 11.3073 20.6749 13.3955 19.7742C12.2205 18.8745 11.3569 17.6293 10.9262 16.2135C10.4955 14.7977 10.5193 13.2825 10.9942 11.881C11.4692 10.4794 12.3714 9.26188 13.5741 8.39957C14.7767 7.53727 16.2194 7.07352 17.6992 7.07352C19.1791 7.07352 20.6218 7.53727 21.8244 8.39957C23.0271 9.26188 23.9293 10.4794 24.4043 11.881C24.8792 13.2825 24.903 14.7977 24.4723 16.2135C24.0416 17.6293 23.178 18.8745 22.003 19.7742C24.0912 20.6749 25.8354 22.2216 26.9793 24.1871ZM17.6992 18.8774C18.6327 18.8774 19.5452 18.6006 20.3214 18.082C21.0975 17.5634 21.7024 16.8263 22.0597 15.9639C22.4169 15.1015 22.5103 14.1525 22.3282 13.237C22.1461 12.3215 21.6966 11.4805 21.0366 10.8204C20.3765 10.1604 19.5355 9.71088 18.62 9.52877C17.7045 9.34666 16.7555 9.44013 15.8931 9.79735C15.0307 10.1546 14.2936 10.7595 13.775 11.5357C13.2564 12.3118 12.9796 13.2243 12.9796 14.1578C12.9796 15.4095 13.4768 16.61 14.3619 17.4951C15.247 18.3802 16.4475 18.8774 17.6992 18.8774ZM9.43981 10.618C9.43981 10.3051 9.31549 10.005 9.09421 9.78368C8.87294 9.5624 8.57282 9.43808 8.25989 9.43808C7.59784 9.43803 6.94909 9.25231 6.38731 8.90202C5.82553 8.55173 5.37324 8.05092 5.08182 7.45647C4.7904 6.86202 4.67153 6.19775 4.73871 5.53913C4.80589 4.88051 5.05643 4.25392 5.46186 3.73055C5.8673 3.20718 6.41139 2.808 7.03233 2.57835C7.65326 2.3487 8.32615 2.29779 8.97457 2.4314C9.62299 2.56501 10.2209 2.87779 10.7005 3.3342C11.1801 3.79061 11.522 4.37237 11.6876 5.01339C11.7658 5.31654 11.9612 5.5762 12.2309 5.73524C12.5006 5.89429 12.8224 5.93969 13.1256 5.86145C13.4287 5.78322 13.6884 5.58776 13.8474 5.31808C14.0065 5.0484 14.0519 4.72658 13.9736 4.42343C13.7439 3.53452 13.3099 2.71151 12.7061 2.01986C12.1024 1.32821 11.3455 0.787021 10.4958 0.439354C9.64603 0.0916867 8.72688 -0.0528622 7.81145 0.0172081C6.89603 0.0872784 6.00958 0.370034 5.22266 0.842977C4.43574 1.31592 3.77006 1.96599 3.27859 2.74148C2.78712 3.51696 2.48342 4.39645 2.39166 5.30995C2.29989 6.22346 2.4226 7.14578 2.75002 8.00352C3.07744 8.86126 3.60052 9.63075 4.27766 10.2508C2.67486 10.9461 1.28171 12.0484 0.236431 13.4483C0.0484754 13.6987 -0.0323325 14.0134 0.0117848 14.3234C0.055902 14.6333 0.221331 14.913 0.471678 15.101C0.722025 15.2889 1.03678 15.3697 1.34671 15.3256C1.65664 15.2815 1.93635 15.1161 2.1243 14.8657C2.83548 13.9098 3.76117 13.1342 4.82685 12.6013C5.89253 12.0685 7.06843 11.7933 8.25989 11.7979C8.57282 11.7979 8.87294 11.6736 9.09421 11.4523C9.31549 11.2311 9.43981 10.9309 9.43981 10.618Z" fill="#393E46"/>
</svg>
