<svg width="70" height="67" viewBox="0 0 70 67" xmlns="http://www.w3.org/2000/svg">
<path d="M69.6031 62.9232C64.4826 54.1119 56.5917 47.7937 47.3828 44.7986C51.9379 42.0995 55.477 37.9867 57.4564 33.0918C59.4359 28.197 59.7464 22.7907 58.3402 17.7032C56.9339 12.6157 53.8888 8.12834 49.6723 4.9302C45.4558 1.73207 40.3012 0 35 0C29.6988 0 24.5442 1.73207 20.3277 4.9302C16.1112 8.12834 13.0661 12.6157 11.6598 17.7032C10.2536 22.7907 10.5641 28.197 12.5436 33.0918C14.523 37.9867 18.0621 42.0995 22.6172 44.7986C13.4083 47.7903 5.51739 54.1085 0.396855 62.9232C0.209076 63.2279 0.0845229 63.567 0.0305457 63.9205C-0.0234316 64.2739 -0.00574008 64.6346 0.0825763 64.9811C0.170893 65.3276 0.328045 65.653 0.544762 65.9381C0.761478 66.2232 1.03337 66.4622 1.34439 66.6411C1.65541 66.8199 1.99927 66.9349 2.35566 66.9793C2.71206 67.0237 3.07378 66.9966 3.41949 66.8996C3.7652 66.8026 4.08788 66.6376 4.36851 66.4145C4.64914 66.1914 4.88202 65.9145 5.05342 65.6004C11.3877 54.7042 22.5836 48.1986 35 48.1986C47.4164 48.1986 58.6123 54.7042 64.9466 65.6004C65.118 65.9145 65.3509 66.1914 65.6315 66.4145C65.9121 66.6376 66.2348 66.8026 66.5805 66.8996C66.9262 66.9966 67.2879 67.0237 67.6443 66.9793C68.0007 66.9349 68.3446 66.8199 68.6556 66.6411C68.9666 66.4622 69.2385 66.2232 69.4552 65.9381C69.672 65.653 69.8291 65.3276 69.9174 64.9811C70.0057 64.6346 70.0234 64.2739 69.9695 63.9205C69.9155 63.567 69.7909 63.2279 69.6031 62.9232ZM16.172 24.1039C16.172 20.3974 17.2763 16.7741 19.3451 13.6923C21.4139 10.6104 24.3545 8.20843 27.7948 6.79002C31.2352 5.3716 35.0209 5.00048 38.6732 5.72358C42.3254 6.44668 45.6803 8.23153 48.3134 10.8524C50.9465 13.4733 52.7397 16.8125 53.4662 20.4478C54.1927 24.0831 53.8198 27.8511 52.3948 31.2755C50.9697 34.6998 48.5565 37.6267 45.4603 39.6859C42.364 41.7451 38.7238 42.8442 35 42.8442C30.0081 42.8389 25.2223 40.8628 21.6925 37.3494C18.1627 33.8361 16.1774 29.0725 16.172 24.1039Z" fill="black"/>
</svg>
