<svg width="87" height="89" viewBox="0 0 87 89" fill="none" xmlns="http://www.w3.org/2000/svg">
<path d="M69.6031 62.9232C64.4826 54.1119 56.5917 47.7937 47.3828 44.7986C51.9379 42.0995 55.477 37.9867 57.4564 33.0918C59.4359 28.197 59.7464 22.7907 58.3402 17.7032C56.9339 12.6157 53.8888 8.12834 49.6723 4.9302C45.4558 1.73207 40.3012 0 35 0C29.6988 0 24.5442 1.73207 20.3277 4.9302C16.1112 8.12834 13.0661 12.6157 11.6598 17.7032C10.2536 22.7907 10.5641 28.197 12.5436 33.0918C14.523 37.9867 18.0621 42.0995 22.6172 44.7986C13.4083 47.7903 5.51739 54.1085 0.396855 62.9232C0.209076 63.2279 0.0845229 63.567 0.0305457 63.9205C-0.0234316 64.2739 -0.00574008 64.6346 0.0825763 64.9811C0.170893 65.3276 0.328045 65.653 0.544762 65.9381C0.761478 66.2232 1.03337 66.4622 1.34439 66.6411C1.65541 66.8199 1.99927 66.9349 2.35566 66.9793C2.71206 67.0237 3.07378 66.9966 3.41949 66.8996C3.7652 66.8026 4.08788 66.6376 4.36851 66.4145C4.64914 66.1914 4.88202 65.9145 5.05342 65.6004C11.3877 54.7042 22.5836 48.1986 35 48.1986C47.4164 48.1986 58.6123 54.7042 64.9466 65.6004C65.118 65.9145 65.3509 66.1914 65.6315 66.4145C65.9121 66.6376 66.2348 66.8026 66.5805 66.8996C66.9262 66.9966 67.2879 67.0237 67.6443 66.9793C68.0007 66.9349 68.3446 66.8199 68.6556 66.6411C68.9666 66.4622 69.2385 66.2232 69.4552 65.9381C69.672 65.653 69.8291 65.3276 69.9174 64.9811C70.0057 64.6346 70.0234 64.2739 69.9695 63.9205C69.9155 63.567 69.7909 63.2279 69.6031 62.9232ZM16.172 24.1039C16.172 20.3974 17.2763 16.7741 19.3451 13.6923C21.4139 10.6104 24.3545 8.20843 27.7948 6.79002C31.2352 5.3716 35.0209 5.00048 38.6732 5.72358C42.3254 6.44668 45.6803 8.23153 48.3134 10.8524C50.9465 13.4733 52.7397 16.8125 53.4662 20.4478C54.1927 24.0831 53.8198 27.8511 52.3948 31.2755C50.9697 34.6998 48.5565 37.6267 45.4603 39.6859C42.364 41.7451 38.7238 42.8442 35 42.8442C30.0081 42.8389 25.2223 40.8628 21.6925 37.3494C18.1627 33.8361 16.1774 29.0725 16.172 24.1039Z" fill="#EEEEEE"/>
<circle cx="66" cy="68" r="21" fill="#EEEEEE"/>
<path d="M75.7955 59.0353C73.189 56.4467 69.668 54.9962 65.9998 55H65.8557C62.1678 55.0381 58.6438 56.5341 56.0494 59.1631C53.455 61.7922 51.9998 65.3417 52 69.0407C52 74.8459 55.578 79.7143 61.3368 81.7542C61.9863 81.9839 62.6812 82.054 63.3634 81.9587C64.0455 81.8634 64.6949 81.6054 65.2571 81.2065C65.8193 80.8075 66.2779 80.2792 66.5945 79.6658C66.9111 79.0524 67.0765 78.3718 67.0767 77.6811C67.0767 77.1082 67.3036 76.5587 67.7075 76.1536C68.1114 75.7485 68.6592 75.521 69.2305 75.521H75.4509C76.4281 75.5257 77.3774 75.1951 78.1414 74.5841C78.9054 73.9731 79.438 73.1185 79.6509 72.162C79.8916 71.0991 80.0086 70.0118 79.9995 68.9219C79.9858 67.0769 79.6072 65.2531 78.8855 63.556C78.1639 61.8589 77.1136 60.3224 75.7955 59.0353ZM77.5455 71.6868C77.4386 72.1633 77.1727 72.5889 76.7918 72.8933C76.411 73.1977 75.9379 73.3626 75.4509 73.3609H69.2305C68.088 73.3609 66.9924 73.816 66.1845 74.6262C65.3767 75.4364 64.9229 76.5353 64.9229 77.6811C64.9224 78.0261 64.8395 78.366 64.6811 78.6723C64.5227 78.9786 64.2935 79.2424 64.0126 79.4416C63.7317 79.6408 63.4074 79.7696 63.0666 79.8173C62.7259 79.865 62.3788 79.8301 62.0542 79.7156C57.1813 77.9916 54.1538 73.9009 54.1538 69.0407C54.1536 65.9109 55.3849 62.9075 57.58 60.683C59.7751 58.4584 62.7568 57.1925 65.8773 57.1601H65.9984C69.119 57.1723 72.1098 58.414 74.3258 60.6176C76.5418 62.8211 77.8055 65.8099 77.8444 68.9394C77.8524 69.8635 77.7539 70.7854 77.5509 71.6868H77.5455ZM67.6151 62.0203C67.6151 62.3408 67.5204 62.654 67.3429 62.9204C67.1654 63.1868 66.9131 63.3945 66.6179 63.5171C66.3228 63.6397 65.998 63.6718 65.6846 63.6093C65.3713 63.5468 65.0834 63.3925 64.8575 63.1659C64.6316 62.9393 64.4778 62.6507 64.4154 62.3364C64.3531 62.0221 64.3851 61.6964 64.5074 61.4004C64.6296 61.1043 64.8367 60.8513 65.1023 60.6733C65.368 60.4953 65.6803 60.4003 65.9998 60.4003C66.4282 60.4003 66.839 60.5709 67.142 60.8748C67.4449 61.1786 67.6151 61.5907 67.6151 62.0203ZM61.6921 65.2605C61.6921 65.5809 61.5974 65.8941 61.4199 66.1605C61.2424 66.427 60.9901 66.6346 60.695 66.7572C60.3998 66.8799 60.075 66.9119 59.7616 66.8494C59.4483 66.7869 59.1605 66.6326 58.9346 66.406C58.7086 66.1795 58.5548 65.8908 58.4925 65.5765C58.4301 65.2623 58.4621 64.9365 58.5844 64.6405C58.7066 64.3445 58.9137 64.0915 59.1793 63.9134C59.445 63.7354 59.7573 63.6404 60.0768 63.6404C60.5052 63.6404 60.9161 63.8111 61.219 64.1149C61.5219 64.4187 61.6921 64.8308 61.6921 65.2605ZM61.6921 72.8208C61.6921 73.1413 61.5974 73.4545 61.4199 73.7209C61.2424 73.9873 60.9901 74.195 60.695 74.3176C60.3998 74.4402 60.075 74.4723 59.7616 74.4098C59.4483 74.3473 59.1605 74.193 58.9346 73.9664C58.7086 73.7398 58.5548 73.4512 58.4925 73.1369C58.4301 72.8226 58.4621 72.4969 58.5844 72.2009C58.7066 71.9048 58.9137 71.6518 59.1793 71.4738C59.445 71.2958 59.7573 71.2008 60.0768 71.2008C60.5052 71.2008 60.9161 71.3714 61.219 71.6753C61.5219 71.9791 61.6921 72.3912 61.6921 72.8208ZM73.5381 65.2605C73.5381 65.5809 73.4433 65.8941 73.2658 66.1605C73.0884 66.427 72.8361 66.6346 72.5409 66.7572C72.2457 66.8799 71.9209 66.9119 71.6076 66.8494C71.2942 66.7869 71.0064 66.6326 70.7805 66.406C70.5546 66.1795 70.4007 65.8908 70.3384 65.5765C70.2761 65.2623 70.3081 64.9365 70.4303 64.6405C70.5526 64.3445 70.7596 64.0915 71.0253 63.9134C71.2909 63.7354 71.6032 63.6404 71.9227 63.6404C72.3511 63.6404 72.762 63.8111 73.065 64.1149C73.3679 64.4187 73.5381 64.8308 73.5381 65.2605Z" fill="#183D3D"/>
</svg>
