<svg width="70" height="67" viewBox="0 0 70 67" fill="none" xmlns="http://www.w3.org/2000/svg">
<path d="M59.2207 10.0136C52.7338 3.59 43.9709 -0.00934048 34.8416 1.82046e-05H34.4831C25.3048 0.0944539 16.5346 3.8069 10.0778 10.3308C3.62107 16.8546 -0.000485763 25.6628 4.88704e-08 34.8416C4.88704e-08 49.2473 8.90471 61.328 23.2367 66.39C24.8532 66.9599 26.5827 67.134 28.2803 66.8975C29.978 66.661 31.5941 66.0209 32.9933 65.0309C34.3925 64.0409 35.5339 62.7299 36.3218 61.2077C37.1098 59.6855 37.5212 57.9966 37.5217 56.2826C37.5217 54.861 38.0865 53.4976 39.0917 52.4924C40.097 51.4871 41.4604 50.9224 42.882 50.9224H58.3631C60.7949 50.9341 63.1576 50.1138 65.0589 48.5977C66.9602 47.0815 68.2858 44.9606 68.8155 42.5872C69.4146 39.9496 69.7058 37.2515 69.6832 34.5468C69.6491 29.9687 68.7068 25.4429 66.9108 21.2316C65.1148 17.0203 62.501 13.2074 59.2207 10.0136ZM63.5759 41.4079C63.3097 42.5904 62.648 43.6465 61.7001 44.4019C60.7523 45.1573 59.5751 45.5665 58.3631 45.5621H42.882C40.0387 45.5621 37.3119 46.6916 35.3015 48.7021C33.291 50.7126 32.1615 53.4394 32.1615 56.2826C32.1602 57.1388 31.9539 57.9822 31.5598 58.7423C31.1657 59.5024 30.5952 60.157 29.8962 60.6513C29.1972 61.1457 28.3899 61.4654 27.5419 61.5837C26.6939 61.702 25.83 61.6155 25.0223 61.3313C12.8947 57.0532 5.36025 46.9022 5.36025 34.8416C5.35983 27.0752 8.42401 19.6224 13.8871 14.1022C19.3501 8.58206 26.7708 5.44058 34.5367 5.36027H34.8383C42.6045 5.39043 50.0478 8.47182 55.5629 13.9399C61.078 19.408 64.223 26.8246 64.3196 34.5904C64.3396 36.8834 64.0945 39.1711 63.5893 41.4079H63.5759ZM38.8618 17.4208C38.8618 18.2159 38.626 18.9932 38.1843 19.6543C37.7425 20.3154 37.1147 20.8307 36.3801 21.135C35.6455 21.4393 34.8372 21.5189 34.0573 21.3638C33.2775 21.2086 32.5611 20.8258 31.9989 20.2635C31.4367 19.7013 31.0538 18.985 30.8987 18.2051C30.7436 17.4253 30.8232 16.617 31.1274 15.8824C31.4317 15.1478 31.947 14.5199 32.6081 14.0782C33.2692 13.6364 34.0465 13.4006 34.8416 13.4006C35.9078 13.4006 36.9304 13.8242 37.6843 14.5781C38.4382 15.3321 38.8618 16.3546 38.8618 17.4208ZM24.1211 25.4612C24.1211 26.2563 23.8853 27.0336 23.4436 27.6947C23.0019 28.3558 22.374 28.8711 21.6394 29.1754C20.9048 29.4796 20.0965 29.5593 19.3166 29.4041C18.5368 29.249 17.8205 28.8661 17.2582 28.3039C16.696 27.7417 16.3131 27.0253 16.158 26.2455C16.0029 25.4657 16.0825 24.6573 16.3868 23.9227C16.691 23.1881 17.2063 22.5603 17.8674 22.1185C18.5286 21.6768 19.3058 21.441 20.1009 21.441C21.1671 21.441 22.1897 21.8646 22.9436 22.6185C23.6976 23.3724 24.1211 24.395 24.1211 25.4612ZM24.1211 44.2221C24.1211 45.0172 23.8853 45.7944 23.4436 46.4556C23.0019 47.1167 22.374 47.632 21.6394 47.9362C20.9048 48.2405 20.0965 48.3201 19.3166 48.165C18.5368 48.0099 17.8205 47.627 17.2582 47.0648C16.696 46.5025 16.3131 45.7862 16.158 45.0064C16.0029 44.2265 16.0825 43.4182 16.3868 42.6836C16.691 41.949 17.2063 41.3211 17.8674 40.8794C18.5286 40.4377 19.3058 40.2019 20.1009 40.2019C21.1671 40.2019 22.1897 40.6254 22.9436 41.3794C23.6976 42.1333 24.1211 43.1558 24.1211 44.2221ZM53.6025 25.4612C53.6025 26.2563 53.3667 27.0336 52.925 27.6947C52.4832 28.3558 51.8553 28.8711 51.1208 29.1754C50.3862 29.4796 49.5778 29.5593 48.798 29.4041C48.0182 29.249 47.3018 28.8661 46.7396 28.3039C46.1774 27.7417 45.7945 27.0253 45.6394 26.2455C45.4842 25.4657 45.5639 24.6573 45.8681 23.9227C46.1724 23.1881 46.6877 22.5603 47.3488 22.1185C48.0099 21.6768 48.7872 21.441 49.5823 21.441C50.6485 21.441 51.6711 21.8646 52.425 22.6185C53.1789 23.3724 53.6025 24.395 53.6025 25.4612Z" fill="#EEEEEE"/>
</svg>
