<svg width="88" height="67" viewBox="0 0 88 67" fill="none" xmlns="http://www.w3.org/2000/svg">
<path d="M83.75 0H3.35C2.46152 0 1.60944 0.352946 0.981192 0.981193C0.352945 1.60944 0 2.46152 0 3.35V60.3C0 62.0769 0.705891 63.7811 1.96238 65.0376C3.21888 66.2941 4.92305 67 6.7 67H80.4C82.1769 67 83.8811 66.2941 85.1376 65.0376C86.3941 63.7811 87.1 62.0769 87.1 60.3V3.35C87.1 2.46152 86.7471 1.60944 86.1188 0.981193C85.4906 0.352946 84.6385 0 83.75 0ZM75.1363 6.7L43.55 35.6566L11.9637 6.7H75.1363ZM80.4 60.3H6.7V10.9671L41.2846 42.6706C41.9026 43.238 42.711 43.5528 43.55 43.5528C44.389 43.5528 45.1974 43.238 45.8154 42.6706L80.4 10.9671V60.3Z" fill="#EEEEEE"/>
</svg>
