<svg width="24" height="25" viewBox="0 0 24 25" fill="none" xmlns="http://www.w3.org/2000/svg">
<path d="M23.4137 6.21789L18 0.607549C17.815 0.41425 17.5947 0.260997 17.352 0.1567C17.1093 0.0524023 16.849 -0.000859413 16.5863 1.04861e-05H2C1.46957 1.04861e-05 0.960859 0.218376 0.585786 0.607068C0.210714 0.995761 0 1.52294 0 2.07264V22.7989C0 23.3486 0.210714 23.8758 0.585786 24.2645C0.960859 24.6532 1.46957 24.8715 2 24.8715H22C22.5304 24.8715 23.0391 24.6532 23.4142 24.2645C23.7893 23.8758 24 23.3486 24 22.7989V7.68298C24.0008 7.41069 23.9494 7.14096 23.8488 6.88944C23.7482 6.63793 23.6003 6.40965 23.4137 6.21789ZM17 22.7989H7V15.5447H17V22.7989ZM22 22.7989H19V15.5447C19 14.995 18.7893 14.4678 18.4142 14.0791C18.0391 13.6904 17.5304 13.4721 17 13.4721H7C6.46957 13.4721 5.96086 13.6904 5.58579 14.0791C5.21071 14.4678 5 14.995 5 15.5447V22.7989H2V2.07264H16.5863L22 7.68298V22.7989ZM16 5.18158C16 5.45642 15.8946 5.72001 15.7071 5.91436C15.5196 6.10871 15.2652 6.21789 15 6.21789H8C7.73478 6.21789 7.48043 6.10871 7.29289 5.91436C7.10536 5.72001 7 5.45642 7 5.18158C7 4.90673 7.10536 4.64314 7.29289 4.44879C7.48043 4.25445 7.73478 4.14526 8 4.14526H15C15.2652 4.14526 15.5196 4.25445 15.7071 4.44879C15.8946 4.64314 16 4.90673 16 5.18158Z" fill="#EEEEEE"/>
</svg>
