<svg width="24" height="25" viewBox="0 0 24 25" fill="none" xmlns="http://www.w3.org/2000/svg">
<path d="M22 0H2C1.46957 0 0.960859 0.218365 0.585786 0.607058C0.210714 0.995751 0 1.52293 0 2.07263V22.7989C0 23.3486 0.210714 23.8758 0.585786 24.2645C0.960859 24.6531 1.46957 24.8715 2 24.8715H22C22.5304 24.8715 23.0391 24.6531 23.4142 24.2645C23.7893 23.8758 24 23.3486 24 22.7989V2.07263C24 1.52293 23.7893 0.995751 23.4142 0.607058C23.0391 0.218365 22.5304 0 22 0ZM22 22.7989H2V2.07263H22V22.7989ZM6.2925 13.1689C6.19952 13.0727 6.12576 12.9584 6.07544 12.8326C6.02512 12.7068 5.99921 12.5719 5.99921 12.4358C5.99921 12.2996 6.02512 12.1647 6.07544 12.0389C6.12576 11.9131 6.19952 11.7988 6.2925 11.7026L10.2925 7.55731C10.4801 7.36286 10.7346 7.25361 11 7.25361C11.2654 7.25361 11.5199 7.36286 11.7075 7.55731C11.8951 7.75177 12.0006 8.0155 12.0006 8.2905C12.0006 8.5655 11.8951 8.82924 11.7075 9.02369L9.41375 11.3994H17C17.2652 11.3994 17.5196 11.5086 17.7071 11.703C17.8946 11.8973 18 12.1609 18 12.4358C18 12.7106 17.8946 12.9742 17.7071 13.1685C17.5196 13.3629 17.2652 13.4721 17 13.4721H9.41375L11.7075 15.8478C11.8004 15.9441 11.8741 16.0584 11.9244 16.1842C11.9747 16.31 12.0006 16.4448 12.0006 16.581C12.0006 16.7172 11.9747 16.852 11.9244 16.9778C11.8741 17.1036 11.8004 17.2179 11.7075 17.3142C11.6146 17.4105 11.5043 17.4869 11.3829 17.539C11.2615 17.5911 11.1314 17.6179 11 17.6179C10.8686 17.6179 10.7385 17.5911 10.6171 17.539C10.4957 17.4869 10.3854 17.4105 10.2925 17.3142L6.2925 13.1689Z" fill="black"/>
</svg>
