<svg width="34" height="26" viewBox="0 0 34 26" fill="none" xmlns="http://www.w3.org/2000/svg">
<path d="M32.5 0H1.3C0.955219 0 0.624558 0.136964 0.380761 0.380761C0.136964 0.624559 0 0.955219 0 1.3V23.4C0 24.0896 0.273928 24.7509 0.761522 25.2385C1.24912 25.7261 1.91044 26 2.6 26H31.2C31.8896 26 32.5509 25.7261 33.0385 25.2385C33.5261 24.7509 33.8 24.0896 33.8 23.4V1.3C33.8 0.955219 33.663 0.624559 33.4192 0.380761C33.1754 0.136964 32.8448 0 32.5 0ZM29.1574 2.6L16.9 13.8369L4.64262 2.6H29.1574ZM31.2 23.4H2.6V4.25588L16.0209 16.5587C16.2607 16.7789 16.5744 16.9011 16.9 16.9011C17.2256 16.9011 17.5393 16.7789 17.7791 16.5587L31.2 4.25588V23.4Z" fill="white"/>
</svg>
