<svg width="207" height="58" viewBox="0 0 207 58" fill="none" xmlns="http://www.w3.org/2000/svg">
<rect x="110" width="96" height="58" fill="#393E46"/>
<path d="M3.24 37.64L3.56 37.68C3.77333 39.12 4.16 40.4533 4.72 41.68C5.28 42.88 6 43.92 6.88 44.8C7.76 45.68 8.78667 46.3733 9.96 46.88C11.16 47.36 12.4933 47.6 13.96 47.6C15.2667 47.6 16.4933 47.4667 17.64 47.2C18.8133 46.9067 19.8267 46.4667 20.68 45.88C21.56 45.2933 22.2533 44.56 22.76 43.68C23.2667 42.7733 23.52 41.6933 23.52 40.44C23.52 39.2667 23.2 38.2933 22.56 37.52C21.9467 36.72 21.1333 36.04 20.12 35.48C19.1067 34.92 17.9467 34.44 16.64 34.04C15.3333 33.6133 13.9867 33.2 12.6 32.8C11.24 32.3733 9.90667 31.9067 8.6 31.4C7.29333 30.8933 6.13333 30.2667 5.12 29.52C4.10667 28.7733 3.28 27.88 2.64 26.84C2.02667 25.7733 1.72 24.4667 1.72 22.92C1.72 21.2667 2.10667 19.88 2.88 18.76C3.68 17.6133 4.70667 16.6933 5.96 16C7.24 15.28 8.68 14.76 10.28 14.44C11.88 14.12 13.5067 13.96 15.16 13.96C17.3467 13.96 19.36 14.1867 21.2 14.64C23.04 15.0933 24.9067 15.7867 26.8 16.72L24.8 23.64L24.4 23.6C24.3467 22.2933 24.0667 21.08 23.56 19.96C23.08 18.8133 22.4267 17.84 21.6 17.04C20.7733 16.2133 19.8 15.5733 18.68 15.12C17.5867 14.64 16.4 14.4 15.12 14.4C13.9467 14.4 12.8267 14.56 11.76 14.88C10.6933 15.1733 9.74667 15.6133 8.92 16.2C8.09333 16.7867 7.44 17.52 6.96 18.4C6.48 19.28 6.24 20.28 6.24 21.4C6.24 22.4933 6.54667 23.4133 7.16 24.16C7.8 24.88 8.62667 25.4933 9.64 26C10.68 26.48 11.8533 26.9067 13.16 27.28C14.4933 27.6533 15.84 28.04 17.2 28.44C18.5867 28.8133 19.9333 29.24 21.24 29.72C22.5733 30.2 23.7467 30.8133 24.76 31.56C25.8 32.28 26.6267 33.1867 27.24 34.28C27.88 35.3467 28.2 36.6667 28.2 38.24C28.2 40.08 27.8133 41.6267 27.04 42.88C26.2667 44.1333 25.2267 45.1467 23.92 45.92C22.6133 46.6667 21.0933 47.2 19.36 47.52C17.6533 47.84 15.8667 48 14 48C11.7067 48 9.52 47.7333 7.44 47.2C5.38667 46.6667 3.38667 45.8 1.44 44.6L3.24 37.64ZM44.5284 48.04C42.3151 48.04 40.3818 47.6533 38.7284 46.88C37.0751 46.1067 35.6751 45.08 34.5284 43.8C33.4084 42.52 32.5551 41.0667 31.9684 39.44C31.4084 37.8133 31.1151 36.1467 31.0884 34.44C31.0884 32.7333 31.3551 31.0667 31.8884 29.44C32.4484 27.8133 33.2884 26.36 34.4084 25.08C35.5551 23.8 36.9684 22.7733 38.6484 22C40.3551 21.2267 42.3551 20.84 44.6484 20.84C46.1951 20.84 47.6218 21.04 48.9284 21.44C50.2618 21.84 51.4618 22.4 52.5284 23.12C53.5951 23.84 54.5151 24.7067 55.2884 25.72C56.0618 26.7067 56.6884 27.8 57.1684 29C56.8484 29.0533 56.3551 29.1467 55.6884 29.28C55.0218 29.3867 54.2351 29.52 53.3284 29.68C52.4484 29.84 51.4618 30.0133 50.3684 30.2C49.2751 30.3867 48.1418 30.5867 46.9684 30.8C48.7284 30.8267 50.2351 31.0933 51.4884 31.6C52.7684 32.08 53.8084 32.7067 54.6084 33.48C55.4351 34.2267 56.0218 35.0933 56.3684 36.08C56.7418 37.04 56.8884 38.0267 56.8084 39.04C56.7551 40.0267 56.4884 41.0133 56.0084 42C55.5551 42.96 54.9018 43.8133 54.0484 44.56C52.8484 45.6267 51.4618 46.48 49.8884 47.12C48.3151 47.7333 46.5284 48.04 44.5284 48.04ZM36.4484 32.68C36.3418 34.3067 36.3951 36 36.6084 37.76C36.8218 39.4933 37.2484 41.0933 37.8884 42.56C38.5284 44 39.3951 45.2 40.4884 46.16C41.5818 47.0933 42.9684 47.5733 44.6484 47.6C46.5684 47.5733 48.2751 47.2667 49.7684 46.68C51.2884 46.0667 52.6218 45.2533 53.7684 44.24C55.0751 43.0667 55.9018 41.6933 56.2484 40.12C56.5951 38.5467 56.4218 37.0533 55.7284 35.64C55.3018 34.7867 54.7684 34.08 54.1284 33.52C53.4884 32.96 52.7684 32.52 51.9684 32.2C51.1951 31.8533 50.3551 31.6133 49.4484 31.48C48.5418 31.3467 47.6218 31.28 46.6884 31.28C45.7284 31.28 44.7684 31.3333 43.8084 31.44C42.8751 31.5467 41.9551 31.68 41.0484 31.84C40.1684 31.9733 39.3284 32.12 38.5284 32.28C37.7551 32.44 37.0618 32.5733 36.4484 32.68ZM36.4484 32.24C37.3818 32.08 38.3684 31.9067 39.4084 31.72C40.4751 31.5333 41.5684 31.3333 42.6884 31.12C44.4218 30.8267 46.1284 30.5333 47.8084 30.24C49.5151 29.92 51.0618 29.64 52.4484 29.4C52.2351 28.36 51.9284 27.36 51.5284 26.4C51.1551 25.4133 50.6484 24.5467 50.0084 23.8C49.3951 23.0267 48.6351 22.4133 47.7284 21.96C46.8484 21.5067 45.8084 21.28 44.6084 21.28C43.1151 21.28 41.8618 21.6267 40.8484 22.32C39.8618 22.9867 39.0484 23.8533 38.4084 24.92C37.7951 25.9867 37.3284 27.1733 37.0084 28.48C36.7151 29.76 36.5284 31.0133 36.4484 32.24ZM60.0338 47.6C61.3404 47.6 62.1804 47.2667 62.5538 46.6C62.9538 45.9067 63.1671 44.84 63.1938 43.4V26.52C63.1938 25.6933 63.1804 24.96 63.1538 24.32C63.1538 23.68 63.0738 23.1467 62.9138 22.72C62.7804 22.2667 62.5404 21.92 62.1938 21.68C61.8471 21.44 61.3404 21.2933 60.6738 21.24V20.84C61.2338 20.7867 61.8471 20.7067 62.5138 20.6C63.2071 20.4933 63.8871 20.36 64.5538 20.2C65.2471 20.04 65.9271 19.8667 66.5938 19.68C67.2604 19.4667 67.8604 19.24 68.3938 19V30.56C68.6338 29.28 68.9804 28.0667 69.4338 26.92C69.8871 25.7467 70.4604 24.72 71.1538 23.84C71.8471 22.96 72.6738 22.2533 73.6338 21.72C74.6204 21.16 75.7538 20.8667 77.0338 20.84C79.0871 20.76 80.9271 21.0267 82.5538 21.64C84.1804 22.2533 85.5538 23.16 86.6738 24.36C87.8204 25.5333 88.7004 26.9733 89.3138 28.68C89.9271 30.36 90.2604 32.2533 90.3138 34.36V43.44C90.3404 44.8533 90.5404 45.9067 90.9138 46.6C91.3138 47.2667 92.1671 47.6 93.4738 47.6V48C92.5404 47.9467 91.6071 47.9067 90.6738 47.88C89.7671 47.8533 88.8871 47.84 88.0338 47.84C87.1804 47.84 86.3804 47.8533 85.6338 47.88C84.9138 47.88 84.2871 47.8933 83.7538 47.92C83.1138 47.9467 82.5404 47.9733 82.0338 48V47.6C82.7538 47.6 83.3138 47.52 83.7138 47.36C84.1404 47.2 84.4604 46.96 84.6738 46.64C84.8871 46.2933 85.0204 45.8533 85.0738 45.32C85.1538 44.7867 85.1938 44.16 85.1938 43.44V34.8C85.1938 33.0133 85.0738 31.2933 84.8338 29.64C84.5938 27.9867 84.1671 26.5333 83.5538 25.28C82.9404 24 82.1004 23 81.0338 22.28C79.9938 21.56 78.6471 21.2133 76.9938 21.24C75.5271 21.2933 74.2604 21.7333 73.1938 22.56C72.1271 23.36 71.2471 24.4 70.5538 25.68C69.8604 26.96 69.3271 28.3867 68.9538 29.96C68.6071 31.5333 68.4204 33.0933 68.3938 34.64V43.64C68.4204 45 68.6338 46 69.0338 46.64C69.4604 47.28 70.3004 47.6 71.5538 47.6V48C70.2204 47.9467 69.1404 47.9067 68.3138 47.88C67.4871 47.8267 66.7138 47.8 65.9938 47.8C65.2204 47.8 64.4204 47.8267 63.5938 47.88C62.7671 47.9067 61.6604 47.9467 60.2738 48H60.0338V47.6ZM96.3619 47.6C97.6685 47.6 98.5085 47.2667 98.8819 46.6C99.2819 45.9067 99.4952 44.84 99.5219 43.4V28.36C99.5219 27.5333 99.5085 26.8 99.4819 26.16C99.4819 25.52 99.4019 24.9867 99.2419 24.56C99.1085 24.1067 98.8685 23.76 98.5219 23.52C98.1752 23.28 97.6685 23.1333 97.0019 23.08V22.68C97.5619 22.6267 98.1752 22.5467 98.8419 22.44C99.5352 22.3333 100.215 22.2 100.882 22.04C101.575 21.88 102.255 21.7067 102.922 21.52C103.589 21.3067 104.189 21.08 104.722 20.84V43.64C104.749 45 104.962 46 105.362 46.64C105.789 47.28 106.629 47.6 107.882 47.6V48C107.082 47.9467 106.135 47.9067 105.042 47.88C103.949 47.8533 102.789 47.84 101.562 47.84C100.709 47.84 99.8419 47.8533 98.9619 47.88C98.0819 47.9067 97.2152 47.9467 96.3619 48V47.6ZM99.0419 16C99.0419 15.12 99.3085 14.3733 99.8419 13.76C100.375 13.1467 101.069 12.84 101.922 12.84C102.829 12.84 103.535 13.16 104.042 13.8C104.575 14.4133 104.842 15.1467 104.842 16C104.842 16.8267 104.562 17.5467 104.002 18.16C103.469 18.7733 102.775 19.08 101.922 19.08C101.095 19.08 100.402 18.8133 99.8419 18.28C99.3085 17.72 99.0419 16.96 99.0419 16Z" fill="#232931"/>
<path d="M142.148 33.2578C142.148 31.5391 141.703 30.2109 140.812 29.2734C139.922 28.3359 138.672 27.8672 137.062 27.8672C135.578 27.8672 134.43 28.3203 133.617 29.2266C132.805 30.1328 132.398 31.4141 132.398 33.0703L131.438 28.3828C132.203 26.7734 133.211 25.5312 134.461 24.6562C135.727 23.7656 137.117 23.3203 138.633 23.3203C140.383 23.3203 141.875 23.7109 143.109 24.4922C144.359 25.2578 145.305 26.3828 145.945 27.8672C146.602 29.3516 146.93 31.1406 146.93 33.2344V48H142.148V33.2578ZM113.086 23.6719H117.867V48H113.086V23.6719ZM127.617 33.2578C127.617 31.5391 127.195 30.2109 126.352 29.2734C125.508 28.3359 124.312 27.8672 122.766 27.8672C121.203 27.8672 119.992 28.2812 119.133 29.1094C118.289 29.9375 117.867 31.1016 117.867 32.6016L117.375 27.9141C118.125 26.4453 119.102 25.3125 120.305 24.5156C121.523 23.7188 122.867 23.3203 124.336 23.3203C126.039 23.3203 127.492 23.7109 128.695 24.4922C129.898 25.2578 130.812 26.3828 131.438 27.8672C132.078 29.3516 132.398 31.1406 132.398 33.2344V48H127.617V33.2578ZM167.93 32.5781C167.93 30.9844 167.5 29.75 166.641 28.875C165.797 27.9844 164.594 27.5391 163.031 27.5391C162.062 27.5391 161.109 27.6875 160.172 27.9844C159.25 28.2812 158.43 28.6953 157.711 29.2266L154.219 26.8359C155.141 25.7266 156.352 24.8672 157.852 24.2578C159.367 23.6328 161.047 23.3203 162.891 23.3203C164.906 23.3203 166.633 23.6797 168.07 24.3984C169.508 25.1016 170.602 26.1328 171.352 27.4922C172.102 28.8359 172.477 30.4609 172.477 32.3672V48H167.93V32.5781ZM161.977 48.3516C158.977 48.3516 156.734 47.7344 155.25 46.5C153.766 45.25 153.023 43.3594 153.023 40.8281C153.023 38.4219 153.703 36.6172 155.062 35.4141C156.422 34.2109 158.477 33.6094 161.227 33.6094H168.141L168.469 37.4531H161.25C160 37.4531 159.062 37.7344 158.438 38.2969C157.828 38.8438 157.523 39.6875 157.523 40.8281C157.523 42.0625 157.93 42.9766 158.742 43.5703C159.57 44.1641 160.82 44.4609 162.492 44.4609C164.32 44.4609 165.68 44.2656 166.57 43.875C167.477 43.4844 167.93 42.875 167.93 42.0469L168.422 45.4688C168 46.125 167.477 46.6641 166.852 47.0859C166.242 47.5078 165.531 47.8203 164.719 48.0234C163.906 48.2422 162.992 48.3516 161.977 48.3516ZM184.523 41.7188C184.523 42.3125 184.648 42.7734 184.898 43.1016C185.164 43.4141 185.531 43.5703 186 43.5703H188.25V48.1172H185.438C183.625 48.1172 182.219 47.5547 181.219 46.4297C180.234 45.3047 179.742 43.7188 179.742 41.6719V13.9219H184.523V41.7188ZM198.445 41.7188C198.445 42.3125 198.57 42.7734 198.82 43.1016C199.086 43.4141 199.453 43.5703 199.922 43.5703H202.172V48.1172H199.359C197.547 48.1172 196.141 47.5547 195.141 46.4297C194.156 45.3047 193.664 43.7188 193.664 41.6719V13.9219H198.445V41.7188Z" fill="white"/>
</svg>
